<svg width="23" height="24" viewBox="0 0 23 24" fill="none" xmlns="http://www.w3.org/2000/svg">
<path d="M21.2161 20.8591H2.2207C1.47136 20.8591 0.863892 21.4666 0.863892 22.2159C0.863892 22.9653 1.47136 23.5727 2.2207 23.5727H21.2161C21.9654 23.5727 22.5729 22.9653 22.5729 22.2159C22.5729 21.4666 21.9654 20.8591 21.2161 20.8591Z" fill="#F8F8F8"/>
<path d="M0.863892 19.5023V22.2159C0.863892 22.9653 1.47136 23.5727 2.2207 23.5727C2.97005 23.5727 3.57752 22.9653 3.57752 22.2159V19.5023C3.57752 18.753 2.97005 18.1455 2.2207 18.1455C1.47136 18.1455 0.863892 18.753 0.863892 19.5023Z" fill="#F8F8F8"/>
<path d="M19.8593 19.5023V22.2159C19.8593 22.9653 20.4667 23.5727 21.2161 23.5727C21.9654 23.5727 22.5729 22.9653 22.5729 22.2159V19.5023C22.5729 18.753 21.9654 18.1455 21.2161 18.1455C20.4667 18.1455 19.8593 18.753 19.8593 19.5023Z" fill="#F8F8F8"/>
<path d="M11.7182 16.7887C11.4369 16.7908 11.1619 16.7055 10.9313 16.5444L5.50403 12.7182C5.21152 12.5107 5.01306 12.1959 4.95204 11.8424C4.89102 11.489 4.9724 11.1258 5.1784 10.8323C5.28123 10.6855 5.4121 10.5606 5.56347 10.4647C5.71484 10.3688 5.8837 10.3039 6.06031 10.2736C6.23691 10.2433 6.41777 10.2483 6.59243 10.2883C6.76709 10.3283 6.9321 10.4025 7.07794 10.5066L11.7182 13.7494L16.3314 10.276C16.6193 10.0601 16.9811 9.96736 17.3374 10.0183C17.6936 10.0691 18.015 10.2595 18.2309 10.5473C18.4468 10.8352 18.5395 11.1971 18.4887 11.5533C18.4378 11.9095 18.2474 12.231 17.9596 12.4469L12.5323 16.5173C12.2975 16.6935 12.0118 16.7887 11.7182 16.7887Z" fill="#F8F8F8"/>
<path d="M11.7183 14.0751C11.3584 14.0751 11.0133 13.9321 10.7589 13.6777C10.5044 13.4232 10.3615 13.0781 10.3615 12.7182V1.86374C10.3615 1.50389 10.5044 1.15878 10.7589 0.904329C11.0133 0.649877 11.3584 0.506927 11.7183 0.506927C12.0781 0.506927 12.4232 0.649877 12.6777 0.904329C12.9321 1.15878 13.0751 1.50389 13.0751 1.86374V12.7182C13.0751 13.0781 12.9321 13.4232 12.6777 13.6777C12.4232 13.9321 12.0781 14.0751 11.7183 14.0751Z" fill="#F8F8F8"/>
</svg>
